<svg xmlns="http://www.w3.org/2000/svg" xmlns:xlink="http://www.w3.org/1999/xlink" version="1.1" x="0px" y="0px" viewBox="0 0 48 60" enable-background="new 0 0 48 48" xml:space="preserve"><defs>
      <filter id="shadow">
    <feGaussianBlur in="SourceAlpha" stdDeviation="1" />
    <feOffset dx=".5" dy="1" />
    <feMerge>
        <feMergeNode />
        <feMergeNode in="SourceGraphic" />
    </feMerge>
  </filter>
  </defs><g style="filter:url(#shadow);"><path d="M38.3,44.1H9.7c-0.5,0-1-0.399-1-1V20.6c0-0.5,0.4-1,1-1h28.6c0.5,0,1,0.4,1,1v22.5C39.3,43.6,38.8,44.1,38.3,44.1z    M10.7,42.1h26.7V21.6H10.7V42.1z" stroke="#FFFFFF" fill="#FFFFFF"/><path d="M32.2,21.1c-0.5,0-1-0.4-1-1v-6.3c0-4-3.2-7.2-7.2-7.2s-7.2,3.2-7.2,7.2V20c0,0.5-0.4,1-1,1c-0.5,0-1-0.4-1-1v-6.1   c0-5,4.1-9.1,9.1-9.1c5,0,9.1,4.1,9.1,9.1v6.3C33.1,20.7,32.7,21.1,32.2,21.1z" stroke="#FFFFFF" fill="#FFFFFF"/></g></svg>