<svg height="512" viewBox="-91 0 512 512.00003" width="512" xmlns="http://www.w3.org/2000/svg"><defs>
    <filter id="shadow">
      <feDropShadow dx="10" dy="10" stdDeviation="4"/>
    </filter>
  </defs><g style="filter:url(#shadow);" fill="#fff" stroke="#fff"><path d="m309.109375 203.875h-36.828125v-96.96875c0-58.949219-47.957031-106.90625-106.90625-106.90625s-106.90625 47.957031-106.90625 106.90625v96.972656h-36.976562c-11.851563 0-21.492188 9.640625-21.492188 21.488282v265.140624c0 11.851563 9.640625 21.492188 21.492188 21.492188h287.617187c11.847656 0 21.488281-9.640625 21.488281-21.492188v-265.140624c0-11.847657-9.640625-21.492188-21.488281-21.492188zm-220.609375-96.96875c0-42.386719 34.488281-76.875 76.875-76.875s76.875 34.488281 76.875 76.875v96.972656h-24.492188v-98.027344c0-28.925781-23.53125-52.457031-52.457031-52.457031s-52.457031 23.53125-52.457031 52.457031v98.027344h-24.339844v-96.972656zm99.226562 96.96875h-44.851562v-98.023438c0-12.363281 10.058594-22.425781 22.425781-22.425781 12.363281 0 22.425781 10.0625 22.425781 22.425781zm112.839844 278.09375h-270.53125v-248.058594h270.53125zm0 0"/><path d="m117.371094 429.0625c2.933594 2.933594 6.777344 4.398438 10.621094 4.398438 3.839843 0 7.683593-1.464844 10.617187-4.398438l121.011719-121.011719c5.863281-5.863281 5.863281-15.371093 0-21.238281-5.863282-5.863281-15.371094-5.863281-21.238282 0l-110.390624 110.394531-35.628907-35.625c-5.863281-5.863281-15.371093-5.863281-21.234375 0-5.863281 5.863281-5.863281 15.371094 0 21.238281zm0 0"/></g></svg>