<?xml version="1.0"?>
<svg xmlns="http://www.w3.org/2000/svg" height="512px" version="1.1" viewBox="-91 0 512 512.00101" width="512px"><defs>
    <filter id="shadow">
      <feDropShadow dx="10" dy="10" stdDeviation="4"/>
    </filter>
  </defs>
<g id="surface1" style="filter:url(#shadow);">
<path d="M 309.109375 203.875 L 142.875 203.875 L 142.875 105.851562 C 142.875 93.488281 152.933594 83.429688 165.300781 83.429688 C 177.667969 83.429688 187.726562 93.488281 187.726562 105.851562 L 187.726562 148.667969 C 187.726562 148.914062 187.75 149.152344 187.761719 149.390625 C 187.773438 149.65625 187.777344 149.921875 187.800781 150.183594 C 187.828125 150.429688 187.875 150.671875 187.910156 150.914062 C 187.949219 151.167969 187.976562 151.425781 188.027344 151.675781 C 188.078125 151.921875 188.148438 152.15625 188.210938 152.398438 C 188.273438 152.636719 188.320312 152.878906 188.394531 153.113281 C 188.46875 153.359375 188.566406 153.59375 188.65625 153.832031 C 188.738281 154.050781 188.808594 154.277344 188.898438 154.492188 C 188.996094 154.730469 189.117188 154.960938 189.230469 155.191406 C 189.332031 155.398438 189.421875 155.605469 189.527344 155.804688 C 189.652344 156.039062 189.796875 156.253906 189.933594 156.476562 C 190.050781 156.664062 190.15625 156.859375 190.277344 157.042969 C 190.425781 157.261719 190.589844 157.464844 190.746094 157.675781 C 190.878906 157.847656 191.003906 158.03125 191.140625 158.203125 C 191.304688 158.402344 191.484375 158.585938 191.660156 158.773438 C 191.808594 158.941406 191.953125 159.113281 192.109375 159.269531 C 192.289062 159.449219 192.484375 159.613281 192.671875 159.785156 C 192.839844 159.9375 193 160.097656 193.175781 160.242188 C 193.367188 160.402344 193.578125 160.546875 193.78125 160.695312 C 193.964844 160.832031 194.140625 160.980469 194.328125 161.105469 C 194.535156 161.246094 194.753906 161.367188 194.96875 161.496094 C 195.167969 161.617188 195.359375 161.75 195.566406 161.859375 C 195.785156 161.980469 196.015625 162.078125 196.238281 162.1875 C 196.453125 162.289062 196.660156 162.402344 196.878906 162.496094 C 197.109375 162.59375 197.351562 162.667969 197.589844 162.757812 C 197.8125 162.839844 198.03125 162.929688 198.257812 163 C 198.5 163.078125 198.75 163.132812 199 163.195312 C 199.230469 163.253906 199.460938 163.324219 199.695312 163.375 C 199.945312 163.425781 200.203125 163.453125 200.453125 163.492188 C 200.699219 163.527344 200.941406 163.578125 201.1875 163.605469 C 201.4375 163.628906 201.695312 163.628906 201.949219 163.644531 C 202.199219 163.65625 202.449219 163.683594 202.703125 163.683594 L 257.230469 163.832031 C 257.242188 163.832031 257.257812 163.832031 257.269531 163.832031 C 257.789062 163.832031 258.300781 163.804688 258.804688 163.753906 C 258.90625 163.742188 259.003906 163.722656 259.105469 163.707031 C 259.503906 163.660156 259.902344 163.605469 260.292969 163.527344 C 260.503906 163.484375 260.707031 163.417969 260.917969 163.367188 C 261.1875 163.296875 261.464844 163.238281 261.730469 163.15625 C 261.980469 163.078125 262.21875 162.980469 262.460938 162.890625 C 262.675781 162.8125 262.898438 162.742188 263.109375 162.652344 C 263.363281 162.546875 263.605469 162.417969 263.855469 162.292969 C 264.042969 162.203125 264.238281 162.121094 264.417969 162.023438 C 264.671875 161.886719 264.910156 161.730469 265.152344 161.578125 C 265.320312 161.472656 265.492188 161.382812 265.65625 161.269531 C 265.890625 161.113281 266.113281 160.9375 266.335938 160.765625 C 266.492188 160.644531 266.660156 160.535156 266.8125 160.40625 C 267.023438 160.234375 267.214844 160.046875 267.414062 159.863281 C 267.566406 159.722656 267.730469 159.589844 267.878906 159.441406 C 268.0625 159.257812 268.230469 159.054688 268.402344 158.863281 C 268.550781 158.699219 268.707031 158.546875 268.847656 158.375 C 269.007812 158.183594 269.148438 157.976562 269.296875 157.777344 C 269.4375 157.589844 269.582031 157.410156 269.714844 157.21875 C 269.847656 157.019531 269.964844 156.808594 270.089844 156.601562 C 270.214844 156.398438 270.351562 156.195312 270.464844 155.984375 C 270.578125 155.773438 270.671875 155.554688 270.777344 155.339844 C 270.886719 155.117188 271.003906 154.902344 271.101562 154.671875 C 271.191406 154.453125 271.265625 154.226562 271.347656 154.003906 C 271.433594 153.765625 271.53125 153.535156 271.605469 153.296875 C 271.675781 153.066406 271.726562 152.832031 271.785156 152.601562 C 271.851562 152.351562 271.925781 152.109375 271.976562 151.859375 C 272.027344 151.625 272.050781 151.382812 272.089844 151.144531 C 272.128906 150.882812 272.179688 150.628906 272.207031 150.367188 C 272.230469 150.128906 272.230469 149.882812 272.246094 149.636719 C 272.261719 149.378906 272.289062 149.121094 272.289062 148.855469 C 272.289062 148.847656 272.289062 148.839844 272.289062 148.832031 C 272.289062 148.828125 272.289062 148.820312 272.289062 148.8125 L 272.289062 106.902344 C 272.285156 47.957031 224.324219 0 165.375 0 C 106.425781 0 58.46875 47.957031 58.46875 106.90625 L 58.46875 203.875 L 21.492188 203.875 C 9.640625 203.875 0 213.515625 0 225.367188 L 0 490.511719 C 0 502.359375 9.640625 512 21.492188 512 L 309.109375 512 C 320.957031 512 330.597656 502.359375 330.597656 490.511719 L 330.597656 225.367188 C 330.597656 213.515625 320.957031 203.875 309.109375 203.875 Z M 88.5 106.90625 C 88.5 64.519531 122.988281 30.03125 165.375 30.03125 C 207.765625 30.03125 242.25 64.519531 242.25 106.90625 L 242.25 133.757812 L 217.757812 133.691406 L 217.757812 105.851562 C 217.757812 76.925781 194.226562 53.394531 165.300781 53.394531 C 136.375 53.394531 112.84375 76.929688 112.84375 105.851562 L 112.84375 203.875 L 88.503906 203.875 L 88.503906 106.90625 Z M 300.566406 481.96875 L 30.035156 481.96875 L 30.035156 233.910156 L 300.566406 233.910156 Z M 300.566406 481.96875 " style=" fill-rule:nonzero;fill-opacity:1;" stroke="#FFFFFF" fill="#FFFFFF"/>
<path d="M 150.285156 373.402344 L 150.285156 416.328125 C 150.285156 424.625 157.007812 431.347656 165.300781 431.347656 C 173.59375 431.347656 180.316406 424.625 180.316406 416.328125 L 180.316406 373.402344 C 198.070312 367.183594 210.84375 350.265625 210.84375 330.414062 C 210.84375 305.304688 190.414062 284.871094 165.300781 284.871094 C 140.1875 284.871094 119.757812 305.304688 119.757812 330.414062 C 119.757812 350.265625 132.527344 367.183594 150.285156 373.402344 Z M 165.300781 314.90625 C 173.851562 314.90625 180.808594 321.863281 180.808594 330.414062 C 180.808594 338.96875 173.851562 345.925781 165.300781 345.925781 C 156.746094 345.925781 149.789062 338.96875 149.789062 330.414062 C 149.789062 321.863281 156.746094 314.90625 165.300781 314.90625 Z M 165.300781 314.90625 " style=" fill-rule:nonzero;fill-opacity:1;" stroke="#FFFFFF" fill="#FFFFFF"/>
</g>
</svg>
