<svg enable-background="new 0 0 48 48" viewBox="0 0 48 60" xmlns="http://www.w3.org/2000/svg"><defs>
      <filter id="shadow">
    <feGaussianBlur in="SourceAlpha" stdDeviation="1.5" />
    <feOffset dx=".5" dy="1" />
    <feMerge>
        <feMergeNode />
        <feMergeNode in="SourceGraphic" />
    </feMerge>
  </filter>
  </defs><g style="filter:url(#shadow);" font-family="'Helvetica Neue', Helvetica, Arial-Unicode, Arial, Sans-serif" font-size="5" font-weight="bold"><path d="m33.8 47.3h-28.8c-.5 0-1-.399-1-1v-22.5c0-.5.4-1 1-1h28.7c.5 0 1 .4 1 1v22.6c0 .5-.4.9-.9.9zm-27.8-1.9h26.8v-20.6h-26.8z" stroke="#FFFFFF" fill="#FFFFFF"/><path d="m27.6 24.8c-.5 0-1-.4-1-1v-14.4c0-5.1 4.101-9.2 9.2-9.2 5.1 0 9.2 4.1 9.2 9.2v6.2c0 .5-.4 1-1 1s-1-.4-1-1v-6.2c0-4-3.2-7.2-7.2-7.2s-7.2 3.2-7.2 7.2v14.4c0 .5-.4 1-1 1z" stroke="#FFFFFF" fill="#FFFFFF"/></g></svg>